<svg xmlns:xlink="http://www.w3.org/1999/xlink" width="40" height="40" viewBox="0 0 40 40" fill="none" xmlns="http://www.w3.org/2000/svg" role="img" color="inherit"><path fill-rule="evenodd" clip-rule="evenodd" d="M11.358 3.066a1 1 0 0 0-1.234 1.417l1.967 3.564C7.91 9.923 5 14.122 5 19c0 4.015 1.972 7.57 5 9.748v.855C10.168 32.741 12.744 36 22.731 36c11.167 0 13.815-2.36 14.2-4.56l.06-.353a3.292 3.292 0 0 0 0-.487v-3.137a3.596 3.596 0 0 0 0-.509v-.002a4.591 4.591 0 0 0-.051-.431c-.241-1.618-1.554-2.723-3.456-3.486a15.745 15.745 0 0 0-2.228-.672l-.337-.08a9.636 9.636 0 0 1-2.024-.684 13.588 13.588 0 0 1-2.047-1.23 31.65 31.65 0 0 0-2.998-2.005 9.965 9.965 0 0 0-1.71-.74l-.675-.205c-3.239-.878-8.128-.866-10.729 5.012-.368.868-.713 1.967-.735 3.107H10v.603A9.97 9.97 0 0 1 7 19a9.994 9.994 0 0 1 4.82-8.555l-1.696 3.072a1 1 0 0 0 1.234 1.417L17 12.772l5.642 2.162a1 1 0 0 0 1.234-1.417l-1.696-3.072a9.994 9.994 0 0 1 4.722 9.963c.578.417 1.191.789 1.833 1.112A12.05 12.05 0 0 0 29 19c0-4.878-2.911-9.077-7.09-10.953l1.966-3.564a1 1 0 0 0-1.234-1.417L17 5.228l-5.642-2.162Zm-.141 25.846c.225.251.487.494.79.725.081.927.486 1.856 1.744 2.65C15.2 33.202 17.899 34 22.73 34c5.496 0 8.639-.588 10.383-1.305 1.627-.668 1.799-1.327 1.846-1.597v-.003l.04-.23c0-.038 0-.077-.004-.116a1.98 1.98 0 0 1-.005-.149v-.432c.359-.198.658-.407.906-.622C34.318 30.915 30.68 32 22.778 32c-6.619 0-9.986-1.334-11.561-3.088Zm3.417-20.395-1.436-2.604 3.444 1.32a1 1 0 0 0 .716 0l3.444-1.32-1.436 2.604a1 1 0 0 0 0 .966l1.436 2.604-3.444-1.32a1 1 0 0 0-.716 0l-3.444 1.32 1.436-2.604a1 1 0 0 0 0-.966Zm-2.16 18.767c-.745-1.079-.532-2.566.098-4.058 1.089-2.453 2.541-3.493 3.902-3.93 1.25-.403 2.616-.355 3.87-.091-.745.615-1.4 1.319-1.96 2.019a17.185 17.185 0 0 0-1.962 2.955 12.32 12.32 0 0 0-.32.663l-.018.043-.006.012-.001.005-.002.003a1 1 0 0 0 1.631 1.09c.073-.062.114-.11.114-.11.102-.149.216-.322.343-.513l.24-.36 1.68-2.3c.061-.075.124-.15.187-.225.825-.965 1.854-2.023 2.39-2.49.067.034.135.07.201.106a29.644 29.644 0 0 1 2.523 1.669c-.414.44-.784.946-1.103 1.427-.517.782-.964 1.605-1.287 2.197l-.021.04a1 1 0 0 0 1.757.956l.01-.018c.327-.604.74-1.362 1.209-2.071.39-.59.777-1.077 1.134-1.402.306.176.618.341.936.496l.03.014c.566.265 1.154.483 1.756.654-.416.628-.823 1.4-1.227 2.279a1 1 0 0 0 1.818.834c.598-1.302 1.105-2.123 1.502-2.577.288.089.573.188.854.295 1.665.67 2.127 1.369 2.21 1.92l.004.03c.062.372.032.593-.032.75-.055.13-.223.433-.87.799C32.638 29.2 29.456 30 22.777 30c-7.111 0-9.531-1.596-10.304-2.716Zm3.616-2.373-.014-.006.014.006Z" fill="#242424"></path></svg>