<svg xmlns:xlink="http://www.w3.org/1999/xlink" width="40" height="40" viewBox="0 0 40 40" fill="none" xmlns="http://www.w3.org/2000/svg" role="img" color="inherit"><path fill-rule="evenodd" clip-rule="evenodd" d="m24.865 2.15-.002-.001-.004-.001-.012-.002-.039-.007a9.42 9.42 0 0 0-.59-.08c-.38-.04-.909-.075-1.5-.05-1.136.046-2.73.316-3.847 1.43-1.116 1.114-1.388 2.704-1.435 3.837a10.378 10.378 0 0 0 .131 2.085l.007.038.003.012v.006l.982-.191-.981.192c.078.398.39.709.788.787h.007l.012.003.038.007a9.331 9.331 0 0 0 .59.08c.38.04.91.075 1.502.05 1.135-.046 2.73-.317 3.846-1.43 1.116-1.114 1.388-2.704 1.435-3.837a10.39 10.39 0 0 0-.131-2.085l-.007-.039-.003-.011v-.006s-.001-.001-.982.191l.981-.192a1 1 0 0 0-.789-.787Zm-5.41 6.183a8.262 8.262 0 0 1-.02-.975c.04-.988.279-1.938.85-2.508.572-.57 1.525-.808 2.515-.849.362-.015.7-.002.978.02.021.277.034.614.02.975-.041.987-.28 1.938-.851 2.508-.572.57-1.525.808-2.515.849-.362.014-.7.002-.978-.02Zm5.218-5.205.192-.979-.192.979Zm-6.307 7.077.024-.122.167-.845-.19.967Z" fill="#242424"></path><path d="M12 27.028c0-4.406 3.582-7.979 8-7.979s8 3.573 8 7.98h2c0-5.51-4.477-9.975-10-9.975s-10 4.466-10 9.974h2Z" fill="#242424"></path><path d="m18.525 28.673-1.508-5.617 1.931-.516 1.487 5.533A1.997 1.997 0 0 1 22 30.021a1.997 1.997 0 0 1-2 1.995c-1.105 0-2-.894-2-1.995 0-.52.2-.993.525-1.348Z" fill="#242424"></path><path fill-rule="evenodd" clip-rule="evenodd" d="M21.53 37.433c.83.418 1.788.567 2.882.567C29.285 38 35 32.195 35 25.034c0-7.162-3.95-12.967-8.823-12.967-1.158 0-1.986.215-2.845.437-.925.24-1.886.49-3.332.49-1.447 0-2.407-.25-3.332-.49-.859-.222-1.687-.437-2.845-.437C8.95 12.067 5 17.872 5 25.033 5 32.196 10.715 38 15.588 38c1.094 0 2.052-.149 2.881-.567A4.44 4.44 0 0 0 20 36.148c.45.582.96.997 1.53 1.285ZM20 34.153c.62 0 1.206.287 1.584.777.581.752 1.322 1.075 2.828 1.075 1.678 0 3.817-1.044 5.61-3.109C31.779 30.873 33 28.085 33 25.033c0-3.234-.896-6.074-2.24-8.048-1.35-1.985-3.007-2.923-4.584-2.923-.9 0-1.513.159-2.39.386l-.051.013c-.944.244-2.083.527-3.735.527-1.652 0-2.79-.282-3.735-.527l-.052-.013c-.876-.227-1.49-.386-2.39-.386-1.576 0-3.233.938-4.584 2.923C7.896 18.96 7 21.8 7 25.034c0 3.05 1.221 5.839 2.978 7.862 1.793 2.065 3.932 3.11 5.61 3.11 1.506 0 2.247-.324 2.828-1.076.378-.49.964-.777 1.584-.777Z" fill="#242424"></path></svg>