<svg xmlns:xlink="http://www.w3.org/1999/xlink" width="40" height="40" viewBox="0 0 40 40" fill="none" xmlns="http://www.w3.org/2000/svg" role="img" color="inherit"><path fill-rule="evenodd" clip-rule="evenodd" d="M5.17 3.439A.98.98 0 0 1 5.983 3h4.28a.99.99 0 0 1 .977.873l.587 4.693.99-2.99a.985.985 0 0 1 .966-.68l3.544.121a.981.981 0 0 1 .824.51c.169.304.169.675 0 .98l-3.82 6.9c1.215.699 1.939 2.22 1.97 3.722.12 5.97-.88 10.792-1.919 14.13a33.594 33.594 0 0 1-1.448 3.857 21.37 21.37 0 0 1-.635 1.289l-.04.073-.012.02-.004.007-.002.003-.848-.508-.847.508-.002-.003-.003-.006-.012-.021a7.384 7.384 0 0 1-.184-.342c-.121-.234-.29-.575-.492-1.02a33.604 33.604 0 0 1-1.45-3.857c-1.038-3.338-2.04-8.16-1.919-14.13.032-1.558.81-3.136 2.107-3.796L5.07 4.37a1.013 1.013 0 0 1 .1-.931Zm5.146 8.892-.918-7.332H7.435l2.881 7.332Zm2.32.063 3.008-5.434-1.195-.041-1.813 5.475Zm-2.695 2.618c-.603 0-1.46.721-1.489 2.159a44.682 44.682 0 0 0 .447 7.336h1.51v1.998H9.24a39.326 39.326 0 0 0 1.041 4.152c.39 1.253.783 2.28 1.114 3.06.331-.78.724-1.807 1.114-3.06.784-2.523 1.553-5.96 1.773-10.148h-2.888v-2h2.95c.003-.439 0-.885-.008-1.338-.03-1.437-.887-2.16-1.49-2.16H9.941Z" fill="#242424"></path><path d="m10.547 36.508.848-.508.847.508a.982.982 0 0 1-.847.492.982.982 0 0 1-.848-.492ZM26.148 8.015a.991.991 0 0 0-.984 1c0 .552.44 1 .983 1a.992.992 0 0 0 .984-1c0-.552-.44-1-.983-1Z" fill="#242424"></path><path fill-rule="evenodd" clip-rule="evenodd" d="M27.241 3.034c.858.03 1.705.4 2.323 1.116.728.842 1.721 2.016 2.583 3.807.863 1.79 1.576 4.158 1.824 7.398.311 4.072-1.015 7.858-2.392 10.605a28.593 28.593 0 0 1-2.149 3.597c.395.238.824.583 1.258.98.544.5 1.148 1.13 1.778 1.859a38.42 38.42 0 0 1 2.352 3.023c.231.33.243.77.03 1.112a.978.978 0 0 1-1 .453l-3.222-.569a20.078 20.078 0 0 0-6.981 0l-3.23.57a.977.977 0 0 1-1-.448 1.013 1.013 0 0 1 .025-1.11 40.192 40.192 0 0 1 2.305-3.037 22 22 0 0 1 1.734-1.856c.453-.424.904-.79 1.319-1.027l-.002-.003a28.506 28.506 0 0 1-1.846-3.026c-1.468-2.783-2.99-6.793-2.658-11.123.247-3.24.961-5.607 1.823-7.398.862-1.79 1.855-2.964 2.583-3.807a3.205 3.205 0 0 1 2.543-1.116Zm-.156 27.97h-.028c-.548 0-1 .097-1.226.209-.2.099-.544.347-1.019.791-.46.43-.994 1-1.573 1.686-.244.29-.488.592-.727.897l.796-.141a22.01 22.01 0 0 1 7.655 0l.746.132a32.78 32.78 0 0 0-.72-.862 20.847 20.847 0 0 0-1.62-1.694c-.489-.449-.847-.705-1.056-.81-.226-.111-.679-.207-1.228-.209Zm2.459-5.34a25.903 25.903 0 0 1-2.16 3.34h-.505c-2.877-3.783-4.997-8.63-4.626-13.494.062-.814.155-1.562.273-2.25.271.111.605.236.987.352 1.042.318 2.5.59 4.052.326l-.325-1.971c-1.149.195-2.285-.002-3.162-.27a8.801 8.801 0 0 1-1.11-.42c.268-.947.582-1.752.914-2.442.744-1.545 1.595-2.557 2.294-3.365a1.26 1.26 0 0 1 1.91-.001c.7.81 1.55 1.821 2.294 3.366.744 1.545 1.4 3.664 1.63 6.675.216 2.839-.433 5.706-1.587 8.353l-2.29-1.483-1.057 1.686 2.468 1.598Z" fill="#242424"></path></svg>