<svg xmlns:xlink="http://www.w3.org/1999/xlink" width="40" height="40" viewBox="0 0 40 40" fill="none" xmlns="http://www.w3.org/2000/svg" role="img" color="inherit"><path fill-rule="evenodd" clip-rule="evenodd" d="M22.962 6.274v.001a15.909 15.909 0 0 1 6.558 2.862L31.657 7l4.243 4.243-2.309 2.308c3.846 6.174 3.087 14.399-2.277 19.763-6.249 6.248-16.38 6.248-22.628 0l1.415-1.415c5.467 5.468 14.331 5.468 19.798 0 5.468-5.467 5.468-14.331 0-19.799-5.467-5.467-14.331-5.467-19.799 0l-1.414-1.414A15.926 15.926 0 0 1 17 6.282V6a3 3 0 1 1 6 0v.28a17.265 17.265 0 0 0-.038-.006ZM21 6.03V6a1 1 0 1 0-2 0v.03l-.022.002a16.099 16.099 0 0 1 2.12.005L21 6.031Zm11.412 5.87.66-.658-1.415-1.415-.604.604a16.388 16.388 0 0 1 1.36 1.47Z" fill="#242424"></path><path d="M20 25a3 3 0 0 0 2.636-4.433l5.315-5.315c.463-.463.521-1.154.13-1.545-.39-.39-1.082-.332-1.544.13l-5.39 5.39A3 3 0 1 0 20 25ZM2 16h8v2H2v-2ZM4 21h6v2H4v-2ZM6 26h4v2H6v-2Z" fill="#242424"></path></svg>