<svg xmlns:xlink="http://www.w3.org/1999/xlink" width="40" height="40" viewBox="0 0 40 40" fill="none" xmlns="http://www.w3.org/2000/svg" role="img" color="inherit"><path d="M14.13 10.63a2.13 2.13 0 1 1-4.26 0h4.26Z" fill="#242424"></path><path fill-rule="evenodd" clip-rule="evenodd" d="M6 10a6 6 0 1 1 12 0 6 6 0 0 1-12 0Zm6-4a4 4 0 1 0 0 8 4 4 0 0 0 0-8Z" fill="#242424"></path><path d="M29.506 12.136c.4-.4.624-.941.624-1.506h-4.26a2.13 2.13 0 0 0 3.636 1.506Z" fill="#242424"></path><path fill-rule="evenodd" clip-rule="evenodd" d="M28 4a6 6 0 1 0 0 12 6 6 0 0 0 0-12Zm-4 6a4 4 0 1 1 8 0 4 4 0 0 1-8 0ZM14.899 18.249a8 8 0 0 1 3.66 2.018A3.99 3.99 0 0 1 20 20c.508 0 .994.095 1.44.267a8 8 0 0 1 3.662-2.018A8.581 8.581 0 0 1 27.138 18h1.722c.687 0 1.372.084 2.039.249A8 8 0 0 1 37 25.997V38H3V25.997a8 8 0 0 1 6.102-7.748A8.58 8.58 0 0 1 11.138 18h1.722c.687 0 1.372.084 2.039.249ZM21 28.019c.305.026.608.076.905.152l.007.001.007.002A5.51 5.51 0 0 1 26 33.49V36h9v-9.998a6 6 0 0 0-4.577-5.81l-.003-.001A6.522 6.522 0 0 0 28.86 20h-1.72a6.58 6.58 0 0 0-1.56.191h-.003a6 6 0 0 0-2.482 1.274A4.002 4.002 0 0 1 21 27.874v.145ZM14 36v-2.51a5.512 5.512 0 0 1 4.068-5.315l.01-.003.009-.002c.3-.075.605-.126.913-.15v-.146a4.002 4.002 0 0 1-2.095-6.409 6 6 0 0 0-2.482-1.273l-.003-.001A6.522 6.522 0 0 0 12.86 20h-1.72a6.58 6.58 0 0 0-1.56.191h-.003A6 6 0 0 0 5 26.002V36h9Zm10-2.51a3.51 3.51 0 0 0-2.592-3.382A3.578 3.578 0 0 0 20.54 30h-1.08c-.296 0-.59.036-.878.108A3.51 3.51 0 0 0 16 33.49V36h8v-2.51ZM18 24a2 2 0 1 1 4 0 2 2 0 0 1-4 0Z" fill="#242424"></path></svg>