<svg xmlns:xlink="http://www.w3.org/1999/xlink" width="40" height="40" viewBox="0 0 40 40" fill="none" xmlns="http://www.w3.org/2000/svg" role="img" color="inherit"><path fill-rule="evenodd" clip-rule="evenodd" d="M14.358 6.066a1 1 0 0 0-1.234 1.417l1.482 2.685C10.12 12.218 7 16.744 7 22c0 7.18 5.82 13 13 13s13-5.82 13-13c0-5.256-3.119-9.783-7.606-11.832l1.482-2.685a1 1 0 0 0-1.234-1.417L20 8.228l-5.642-2.162Zm10.066 5.86-.04.074 2.492 4.517a1 1 0 0 1-1.234 1.417L20 15.772l-5.642 2.162a1 1 0 0 1-1.234-1.417L15.617 12l-.041-.074A11.002 11.002 0 0 0 9 22c0 6.075 4.925 11 11 11s11-4.925 11-11c0-4.501-2.704-8.371-6.576-10.074Zm-6.79-.41-1.436-2.603 3.444 1.32a1 1 0 0 0 .716 0l3.444-1.32-1.436 2.604a1 1 0 0 0 0 .966l1.436 2.604-3.444-1.32a1 1 0 0 0-.716 0l-3.444 1.32 1.436-2.604a1 1 0 0 0 0-.966Z" fill="#242424"></path></svg>